<svg width="26" height="20" viewBox="0 0 26 20" fill="none" xmlns="http://www.w3.org/2000/svg">
<path d="M0.114166 4.30474C0.114166 3.36626 0.874953 2.60547 1.81343 2.60547H3.5127C4.45118 2.60547 5.21197 3.36626 5.21197 4.30474V12.8011C5.21197 13.7396 5.97276 14.5003 6.91124 14.5003H18.8061C19.7446 14.5003 20.5054 13.7396 20.5054 12.8011V4.30474C20.5054 3.36626 21.2662 2.60547 22.2046 2.60547H23.9039C24.8424 2.60547 25.6032 3.36626 25.6032 4.30474V15.35C25.6032 17.6962 23.7012 19.5981 21.355 19.5981H4.36234C2.01614 19.5981 0.114166 17.6962 0.114166 15.35V4.30474Z" fill="white"/>
<path d="M6.06165 3.45375C6.06165 2.04603 7.20283 0.904846 8.61055 0.904846H17.1069C18.5146 0.904846 19.6558 2.04603 19.6558 3.45375V12.7997C19.6558 13.269 19.2754 13.6494 18.8062 13.6494H6.91128C6.44204 13.6494 6.06165 13.269 6.06165 12.7997V3.45375Z" fill="white"/>
</svg>
