<svg width="24" height="24" viewBox="0 0 24 24" fill="none" xmlns="http://www.w3.org/2000/svg">
<path d="M12 0C18.612 0 24 5.388 24 12C24 18.624 18.612 24 12 24L11.6643 23.9954C5.19531 23.8174 0 18.5117 0 12C0 5.388 5.376 0 12 0ZM10.272 6.936C10.032 6.936 9.804 7.02 9.624 7.2C9.276 7.56 9.276 8.124 9.636 8.472L13.176 12L9.636 15.528C9.276 15.876 9.276 16.452 9.624 16.8C9.984 17.16 10.548 17.16 10.896 16.8L15.084 12.636C15.252 12.468 15.348 12.24 15.348 12C15.348 11.76 15.252 11.532 15.084 11.364L10.896 7.2C10.728 7.02 10.5 6.936 10.272 6.936Z" fill="#FEA923"/>
</svg>
